<?xml version="1.0" standalone="no"?>
<!DOCTYPE svg PUBLIC "-//W3C//DTD SVG 20010904//EN"
 "http://www.w3.org/TR/2001/REC-SVG-20010904/DTD/svg10.dtd">
<svg version="1.0" xmlns="http://www.w3.org/2000/svg"
 width="256.000000pt" height="256.000000pt" viewBox="0 0 256.000000 256.000000"
 preserveAspectRatio="xMidYMid meet">
<metadata>
Created by potrace 1.16, written by Peter Selinger 2001-2019
</metadata>
<g transform="translate(0.000000,256.000000) scale(0.100000,-0.100000)"
fill="#000000" stroke="none">
<path d="M1023 2534 c-135 -28 -308 -95 -408 -157 -115 -71 -274 -218 -360
-333 -128 -171 -227 -415 -249 -616 l-6 -48 329 0 329 0 7 28 c3 15 24 64 45
109 30 64 55 99 112 156 85 84 139 117 261 158 153 51 341 38 469 -32 14 -8
44 -24 66 -37 75 -41 178 -155 221 -246 21 -44 41 -93 45 -108 l6 -28 335 0
c385 0 345 -15 320 117 -69 361 -276 670 -580 865 -65 42 -207 113 -245 123
-3 0 -27 8 -55 17 -53 17 -97 29 -130 34 -11 2 -45 8 -75 13 -97 17 -323 9
-437 -15z"/>
<path d="M1178 1711 c-42 -9 -80 -19 -84 -23 -4 -5 -15 -8 -23 -8 -26 0 -153
-96 -189 -143 -74 -96 -104 -180 -104 -297 -1 -178 112 -353 278 -429 137 -64
316 -62 454 7 60 29 154 117 193 178 125 200 68 489 -122 622 -32 23 -64 42
-70 42 -6 0 -11 3 -11 8 0 13 -196 64 -233 61 -7 -1 -47 -9 -89 -18z"/>
<path d="M21 1045 c43 -200 101 -337 209 -494 154 -225 389 -402 650 -488 151
-50 199 -57 400 -57 197 0 267 10 410 58 432 143 768 533 853 989 l15 77 -330
-2 -330 -3 -22 -70 c-52 -161 -179 -307 -321 -369 -22 -9 -48 -21 -58 -27 -67
-37 -289 -45 -399 -15 -196 54 -383 239 -431 427 l-14 54 -326 3 -325 2 19
-85z"/>
</g>
</svg>
